<svg xmlns="http://www.w3.org/2000/svg" xmlns:xlink="http://www.w3.org/1999/xlink" width="24" height="24" viewBox="0 0 24 24">
    <defs></defs>
    <g fill-rule="evenodd" fill="#3a4fbd">
        <g>
            <g mask="url(#sdmmvr7m9b)">
                <path id="lz3qn1ow1a" d="M19.795 8.493c-.277.295-.732.295-1.01 0L16.947 6.58v12.71c0 .394-.316.709-.712.709-.395 0-.712-.315-.712-.71V6.582l-1.84 1.912c-.276.295-.731.295-1.008 0-.277-.296-.277-.769 0-1.064l2.987-3.133.02-.02.039-.04c.119-.137.297-.216.494-.216.198 0 .376.079.515.216l3.046 3.193c.297.295.297.768.02 1.064zM8.322 19.704l-.06.06c-.118.137-.296.216-.494.216s-.376-.079-.514-.216L4.208 16.57c-.277-.295-.277-.768 0-1.064.277-.295.732-.295 1.008 0l1.84 1.912V4.709c0-.394.317-.709.712-.709.396 0 .712.315.712.71v12.709l1.84-1.912c.277-.295.732-.295 1.009 0 .277.296.277.769 0 1.064l-3.007 3.133z" />
            </g>
        </g>
    </g>
</svg>
